<svg xmlns="http://www.w3.org/2000/svg" width="28" height="28" viewBox="0 0 28 28">
  <metadata><?xpacket begin="﻿" id="W5M0MpCehiHzreSzNTczkc9d"?>
<x:xmpmeta xmlns:x="adobe:ns:meta/" x:xmptk="Adobe XMP Core 5.6-c138 79.159824, 2016/09/14-01:09:01        ">
   <rdf:RDF xmlns:rdf="http://www.w3.org/1999/02/22-rdf-syntax-ns#">
      <rdf:Description rdf:about=""/>
   </rdf:RDF>
</x:xmpmeta>
                                                                                                    
                                                                                                    
                                                                                                    
                                                                                                    
                                                                                                    
                                                                                                    
                                                                                                    
                                                                                                    
                                                                                                    
                                                                                                    
                                                                                                    
                                                                                                    
                                                                                                    
                                                                                                    
                                                                                                    
                                                                                                    
                                                                                                    
                                                                                                    
                                                                                                    
                                                                                                    
                           
<?xpacket end="w"?></metadata>
<defs>
    <style>
      .cls-1 {
        fill: #5ec233;
        fill-rule: evenodd;
      }
    </style>
  </defs>
  <path id="Forma_1_copy_2" data-name="Forma 1 copy 2" class="cls-1" d="M19.074,12.54V2.85A0.858,0.858,0,0,0,18.208,2H2.866A0.859,0.859,0,0,0,2,2.85V25.434a0.859,0.859,0,0,0,.866.85H15.429a7.447,7.447,0,0,0,3.2.716A7.234,7.234,0,0,0,19.074,12.54ZM3.732,3.7H17.341v8.936a7.288,7.288,0,0,0-6.091,7.125,7.132,7.132,0,0,0,1.88,4.821h-9.4V3.7ZM18.625,25.3a5.538,5.538,0,1,1,5.642-5.537A5.6,5.6,0,0,1,18.625,25.3Zm2.531-8.02a0.878,0.878,0,0,0-1.225,0l-3.835,3.764a0.839,0.839,0,0,0,0,1.2,0.879,0.879,0,0,0,1.225,0l3.835-3.764A0.839,0.839,0,0,0,21.156,17.279Zm-4.46,1.44a0.884,0.884,0,0,0,.614-0.249,0.841,0.841,0,0,0,0-1.2,0.879,0.879,0,0,0-1.226,0,0.839,0.839,0,0,0,0,1.2A0.882,0.882,0,0,0,16.7,18.719Zm3.859,2.086a0.881,0.881,0,0,0-.612.249,0.839,0.839,0,0,0,0,1.2,0.878,0.878,0,0,0,1.225,0,0.839,0.839,0,0,0,0-1.2A0.881,0.881,0,0,0,20.555,20.805ZM7.468,8.217h6.137a0.85,0.85,0,1,0,0-1.7H7.468A0.85,0.85,0,1,0,7.468,8.217Zm0,4.517h6.137a0.851,0.851,0,1,0,0-1.7H7.468A0.851,0.851,0,1,0,7.468,12.734ZM9,15.55H7.468a0.851,0.851,0,1,0,0,1.7H9A0.851,0.851,0,1,0,9,15.55Z"/>
</svg>
