<svg xmlns="http://www.w3.org/2000/svg" width="17" height="18" viewBox="0 0 17 18">
  <metadata><?xpacket begin="﻿" id="W5M0MpCehiHzreSzNTczkc9d"?>
<x:xmpmeta xmlns:x="adobe:ns:meta/" x:xmptk="Adobe XMP Core 5.6-c138 79.159824, 2016/09/14-01:09:01        ">
   <rdf:RDF xmlns:rdf="http://www.w3.org/1999/02/22-rdf-syntax-ns#">
      <rdf:Description rdf:about=""/>
   </rdf:RDF>
</x:xmpmeta>
                                                                                                    
                                                                                                    
                                                                                                    
                                                                                                    
                                                                                                    
                                                                                                    
                                                                                                    
                                                                                                    
                                                                                                    
                                                                                                    
                                                                                                    
                                                                                                    
                                                                                                    
                                                                                                    
                                                                                                    
                                                                                                    
                                                                                                    
                                                                                                    
                                                                                                    
                                                                                                    
                           
<?xpacket end="w"?></metadata>
<defs>
    <style>
      .cls-1 {
        fill: #fff;
        fill-rule: evenodd;
      }
    </style>
  </defs>
  <path id="Forma_1" data-name="Forma 1" class="cls-1" d="M1012.09,99.589V92.612a0.609,0.609,0,0,0-.61-0.612h-10.87a0.609,0.609,0,0,0-.61.612v16.26a0.61,0.61,0,0,0,.61.613h8.9A5.214,5.214,0,1,0,1012.09,99.589Zm-10.86-6.364h9.64v6.434a5.2,5.2,0,0,0-2.99,8.6h-6.65V93.224Zm10.55,15.552a3.987,3.987,0,1,1,3.99-3.987A4,4,0,0,1,1011.78,108.776Zm1.79-5.775a0.617,0.617,0,0,0-.87,0l-2.72,2.71a0.611,0.611,0,0,0,0,.866,0.618,0.618,0,0,0,.87,0l2.72-2.71A0.611,0.611,0,0,0,1013.57,103Zm-3.16,1.037a0.609,0.609,0,0,0,.43-0.179,0.611,0.611,0,0,0,0-.866,0.606,0.606,0,0,0-.86,0,0.611,0.611,0,0,0,0,.866A0.609,0.609,0,0,0,1010.41,104.038Zm2.73,1.5a0.6,0.6,0,0,0-.43.179,0.611,0.611,0,0,0,0,.866,0.6,0.6,0,0,0,.43.179,0.646,0.646,0,0,0,.44-0.179,0.611,0.611,0,0,0,0-.866A0.646,0.646,0,0,0,1013.14,105.54Zm-9.27-9.064h4.35a0.612,0.612,0,0,0,0-1.225h-4.35A0.612,0.612,0,0,0,1003.87,96.477Zm0,3.252h4.35a0.612,0.612,0,0,0,0-1.224h-4.35A0.612,0.612,0,0,0,1003.87,99.729Zm1.09,2.028h-1.09a0.613,0.613,0,0,0,0,1.225h1.09A0.613,0.613,0,0,0,1004.96,101.756Z" transform="translate(-1000 -92)"/>
</svg>
