<svg xmlns="http://www.w3.org/2000/svg" width="144" height="168" viewBox="0 0 144 168">
  <metadata><?xpacket begin="﻿" id="W5M0MpCehiHzreSzNTczkc9d"?>
<x:xmpmeta xmlns:x="adobe:ns:meta/" x:xmptk="Adobe XMP Core 5.6-c138 79.159824, 2016/09/14-01:09:01        ">
   <rdf:RDF xmlns:rdf="http://www.w3.org/1999/02/22-rdf-syntax-ns#">
      <rdf:Description rdf:about=""/>
   </rdf:RDF>
</x:xmpmeta>
                                                                                                    
                                                                                                    
                                                                                                    
                                                                                                    
                                                                                                    
                                                                                                    
                                                                                                    
                                                                                                    
                                                                                                    
                                                                                                    
                                                                                                    
                                                                                                    
                                                                                                    
                                                                                                    
                                                                                                    
                                                                                                    
                                                                                                    
                                                                                                    
                                                                                                    
                                                                                                    
                           
<?xpacket end="w"?></metadata>
<defs>
    <style>
      .cls-1 {
        fill: #474d64;
        fill-rule: evenodd;
      }
    </style>
  </defs>
  <path id="Forma_1" data-name="Forma 1" class="cls-1" d="M971.13,320.315V294.408a10.12,10.12,0,0,0-10.161-10.079h-2.657V189.75a2.516,2.516,0,0,0-1.139-2.1l-6.45-4.228a2.542,2.542,0,0,0-3.942,2.1V215.9l-1.922-5.142a17.777,17.777,0,0,0-16.674-11.507H883.776a17.775,17.775,0,0,0-16.715,11.618l-1.842,5.031V185.522a2.541,2.541,0,0,0-3.941-2.1l-6.451,4.228a2.514,2.514,0,0,0-1.14,2.1v94.579h-2.656a10.121,10.121,0,0,0-10.162,10.079v25.907H836.54a2.53,2.53,0,0,0-2.54,2.519v13.93a2.53,2.53,0,0,0,2.54,2.52H847.5v6.677A5.06,5.06,0,0,0,852.581,351h13.463a5.06,5.06,0,0,0,5.081-5.039v-6.677h69.75v6.677A5.06,5.06,0,0,0,945.956,351h13.463a5.06,5.06,0,0,0,5.081-5.039v-6.677h10.96a2.53,2.53,0,0,0,2.54-2.52V322.835a2.53,2.53,0,0,0-2.54-2.52h-4.33ZM868.584,229.933h74.831V254.76H868.584V229.933Zm-1.74,83.33h-8.678a4.782,4.782,0,0,1-4.8-4.762v-0.12a4.782,4.782,0,0,1,4.8-4.762h8.678a4.782,4.782,0,0,1,4.8,4.762v0.12A4.782,4.782,0,0,1,866.844,313.263Zm56.426,1.405H888.73a5.061,5.061,0,0,1-5.081-5.04V277.7a5.06,5.06,0,0,1,5.081-5.04h34.54a5.06,5.06,0,0,1,5.081,5.04v31.929A5.061,5.061,0,0,1,923.27,314.668Zm30.564-1.405h-8.678a4.782,4.782,0,0,1-4.8-4.762v-0.12a4.782,4.782,0,0,1,4.8-4.762h8.678a4.782,4.782,0,0,1,4.8,4.762v0.12A4.782,4.782,0,0,1,953.834,313.263ZM922.5,291.1H889.421a2.505,2.505,0,0,1-2.515-2.495v-0.051a2.5,2.5,0,0,1,2.515-2.494H922.5a2.5,2.5,0,0,1,2.515,2.494v0.051A2.505,2.505,0,0,1,922.5,291.1Zm0-10.079H889.421a2.505,2.505,0,0,1-2.515-2.5v-0.05a2.505,2.505,0,0,1,2.515-2.5H922.5a2.505,2.505,0,0,1,2.515,2.5v0.05A2.505,2.505,0,0,1,922.5,281.023Zm0,30.236H889.421a2.5,2.5,0,0,1-2.515-2.494v-0.051a2.5,2.5,0,0,1,2.515-2.494H922.5a2.5,2.5,0,0,1,2.515,2.494v0.051A2.5,2.5,0,0,1,922.5,311.259Zm0-10.079H889.421a2.5,2.5,0,0,1-2.515-2.494v-0.05a2.505,2.505,0,0,1,2.515-2.5H922.5a2.505,2.505,0,0,1,2.515,2.5v0.05A2.5,2.5,0,0,1,922.5,301.18Z" transform="translate(-834 -183)"/>
</svg>
